# Blender 3.4.1
# www.blender.org
mtllib Screen.mtl
o Cube
v -1.375000 -0.000500 1.000000
v -1.375000 0.000500 1.000000
v -1.375000 -0.000500 -1.000000
v -1.375000 0.000500 -1.000000
v 1.375000 -0.000500 1.000000
v 1.375000 0.000500 1.000000
v 1.375000 -0.000500 -1.000000
v 1.375000 0.000500 -1.000000
vn -1.0000 -0.0000 -0.0000
vn -0.0000 -0.0000 -1.0000
vn 1.0000 -0.0000 -0.0000
vn -0.0000 -0.0000 1.0000
vn -0.0000 -1.0000 -0.0000
vn -0.0000 1.0000 -0.0000
vt 0.375000 0.000000
vt 0.375000 1.000000
vt 0.125000 0.750000
vt 0.625000 0.000000
vt 0.625000 1.000000
vt 0.875000 0.750000
vt 0.375000 0.250000
vt 0.125000 0.500000
vt 0.625000 0.250000
vt 0.875000 0.500000
vt 0.375000 0.750000
vt 0.625000 0.750000
vt 0.375000 0.500000
vt 0.625000 0.500000
s 0
usemtl Black
f 1/1/1 2/4/1 4/9/1 3/7/1
f 3/7/2 4/9/2 8/14/2 7/13/2
f 7/13/3 8/14/3 6/12/3 5/11/3
f 5/11/4 6/12/4 2/5/4 1/2/4
f 3/8/5 7/13/5 5/11/5 1/3/5
f 8/14/6 4/10/6 2/6/6 6/12/6
o Cube.001
v -1.304126 0.000500 0.964564
v -1.304126 0.001448 0.964564
v -1.304126 0.000500 -0.932347
v -1.304126 0.001448 -0.932347
v 1.304126 0.000500 0.964564
v 1.304126 0.001448 0.964564
v 1.304126 0.000500 -0.932347
v 1.304126 0.001448 -0.932347
vn -1.0000 -0.0000 -0.0000
vn -0.0000 -0.0000 -1.0000
vn 1.0000 -0.0000 -0.0000
vn -0.0000 -0.0000 1.0000
vn -0.0000 -1.0000 -0.0000
vn -0.0000 1.0000 -0.0000
vt -0.251019 -0.251019
vt -0.251019 1.251019
vt -0.251019 -0.251019
vt 1.251019 -0.251019
vt -0.251019 -0.251019
vt -0.251019 1.251019
vt 1.251019 1.251019
vt -0.251019 1.251019
vt -0.251019 -0.251019
vt 1.251019 -0.251019
vt -0.251019 1.251019
vt 1.251019 1.251019
vt 1.251019 -0.251019
vt 1.251019 -0.251019
vt 1.251019 1.251019
vt 1.251019 1.251019
s 0
usemtl Gray_white_plastic
f 9/15/7 10/16/7 12/21/7 11/18/7
f 11/19/8 12/22/8 16/30/8 15/28/8
f 15/28/9 16/30/9 14/25/9 13/23/9
f 13/24/10 14/26/10 10/16/10 9/15/10
f 11/20/11 15/29/11 13/24/11 9/15/11
f 16/30/12 12/22/12 10/17/12 14/27/12
o Cylinder
v -1.549243 0.023730 -1.138505
v 1.549243 0.023730 -1.138505
v -1.549243 -0.033097 -1.114967
v 1.549243 -0.033097 -1.114967
v -1.549243 -0.056635 -1.058140
v 1.549243 -0.056635 -1.058140
v -1.549243 -0.033097 -1.001313
v 1.549243 -0.033097 -1.001313
v -1.549243 0.023730 -0.977774
v 1.549243 0.023730 -0.977774
v -1.549243 0.080557 -1.001313
v 1.549243 0.080557 -1.001313
v -1.549243 0.104095 -1.058140
v 1.549243 0.104095 -1.058140
v -1.549243 0.080557 -1.114967
v 1.549243 0.080557 -1.114967
vn -0.0000 -0.3827 -0.9239
vn -0.0000 -0.9239 -0.3827
vn -0.0000 -0.9239 0.3827
vn -0.0000 -0.3827 0.9239
vn -0.0000 0.3827 0.9239
vn -0.0000 0.9239 0.3827
vn 1.0000 -0.0000 -0.0000
vn -0.0000 0.9239 -0.3827
vn -0.0000 0.3827 -0.9239
vn -1.0000 -0.0000 -0.0000
vt 0.500000 -0.503476
vt 0.500000 0.610382
vt 0.500000 0.610382
vt 0.500000 1.503476
vt 0.578052 -0.503476
vt 0.578052 0.578052
vt 0.578052 1.503476
vt 0.578052 0.578052
vt 0.500000 -0.503476
vt 0.610382 0.500000
vt 0.500000 1.503476
vt 0.610382 0.500000
vt 0.421948 -0.503476
vt 0.578052 -0.503476
vt 0.578052 0.421948
vt 0.421948 1.503476
vt 0.578052 1.503476
vt 0.578052 0.421948
vt 0.500000 -0.503476
vt 0.500000 0.389618
vt 0.500000 1.503476
vt 0.500000 0.389618
vt 0.421948 -0.503476
vt 0.421948 0.421948
vt 0.421948 1.503476
vt 0.421948 0.421948
vt 0.500000 -0.503476
vt 0.389618 0.500000
vt 0.389618 0.500000
vt 0.500000 1.503476
vt 0.578052 -0.503476
vt 0.421948 -0.503476
vt 0.421948 0.578052
vt 0.421948 0.578052
vt 0.578052 1.503476
vt 0.421948 1.503476
s 0
usemtl Plastic
f 17/31/13 18/34/13 20/37/13 19/35/13
f 19/35/14 20/37/14 22/41/14 21/39/14
f 21/39/15 22/41/15 24/46/15 23/43/15
f 23/44/16 24/47/16 26/51/16 25/49/16
f 25/49/17 26/51/17 28/55/17 27/53/17
f 27/53/18 28/55/18 30/60/18 29/57/18
f 20/38/19 18/33/19 32/64/19 30/59/19 28/56/19 26/52/19 24/48/19 22/42/19
f 29/57/20 30/60/20 32/65/20 31/61/20
f 31/62/21 32/66/21 18/34/21 17/31/21
f 17/32/22 19/36/22 21/40/22 23/45/22 25/50/22 27/54/22 29/58/22 31/63/22
o Cylinder.001
v -1.440678 0.000887 0.971131
v 1.440678 0.000887 0.971131
v -1.440678 -0.022810 0.980946
v 1.440678 -0.022810 0.980946
v -1.440678 -0.032625 1.004643
v 1.440678 -0.032625 1.004643
v -1.440678 -0.022810 1.028340
v 1.440678 -0.022810 1.028340
v -1.440678 0.000887 1.038156
v 1.440678 0.000887 1.038156
v -1.440678 0.024584 1.028340
v 1.440678 0.024584 1.028340
v -1.440678 0.034399 1.004643
v 1.440678 0.034400 1.004643
v -1.440678 0.024584 0.980946
v 1.440678 0.024584 0.980946
vn -0.0000 -0.3827 -0.9239
vn -0.0000 -0.9239 -0.3827
vn -0.0000 -0.9239 0.3827
vn -0.0000 -0.3827 0.9239
vn -0.0000 0.3827 0.9239
vn -0.0000 0.9239 0.3827
vn 1.0000 -0.0000 -0.0000
vn -0.0000 0.9239 -0.3827
vn -0.0000 0.3827 -0.9239
vn -1.0000 -0.0000 -0.0000
vt 1.000000 0.500000
vt 0.000000 0.500000
vt 0.750000 0.490000
vt 1.000000 1.000000
vt 0.250000 0.490000
vt 0.000000 1.000000
vt 0.875000 0.500000
vt 0.919706 0.419706
vt 0.875000 1.000000
vt 0.419706 0.419706
vt 0.750000 0.500000
vt 0.990000 0.250000
vt 0.750000 1.000000
vt 0.490000 0.250000
vt 0.625000 0.500000
vt 0.919706 0.080294
vt 0.625000 1.000000
vt 0.419706 0.080294
vt 0.500000 0.500000
vt 0.750000 0.010000
vt 0.500000 1.000000
vt 0.250000 0.010000
vt 0.375000 0.500000
vt 0.580294 0.080294
vt 0.375000 1.000000
vt 0.080294 0.080294
vt 0.250000 0.500000
vt 0.510000 0.250000
vt 0.010000 0.250000
vt 0.250000 1.000000
vt 0.125000 0.500000
vt 0.580294 0.419706
vt 0.080294 0.419706
vt 0.125000 1.000000
s 0
usemtl Plastic
f 33/67/23 34/70/23 36/75/23 35/73/23
f 35/73/24 36/75/24 38/79/24 37/77/24
f 37/77/25 38/79/25 40/83/25 39/81/25
f 39/81/26 40/83/26 42/87/26 41/85/26
f 41/85/27 42/87/27 44/91/27 43/89/27
f 43/89/28 44/91/28 46/96/28 45/93/28
f 36/76/29 34/71/29 48/99/29 46/95/29 44/92/29 42/88/29 40/84/29 38/80/29
f 45/93/30 46/96/30 48/100/30 47/97/30
f 47/97/31 48/100/31 34/72/31 33/68/31
f 33/69/32 35/74/32 37/78/32 39/82/32 41/86/32 43/90/32 45/94/32 47/98/32
o Cylinder.002
v 1.485818 0.024000 -1.146197
v 1.549287 0.024000 -1.146197
v 1.485818 -0.039107 -1.120057
v 1.549287 -0.039107 -1.120057
v 1.485818 -0.065247 -1.056950
v 1.549287 -0.065247 -1.056950
v 1.485818 -0.039107 -0.993843
v 1.549287 -0.039107 -0.993843
v 1.485818 0.024000 -0.967703
v 1.549287 0.024000 -0.967703
v 1.485818 0.087108 -0.993843
v 1.549287 0.087108 -0.993843
v 1.485818 0.113247 -1.056950
v 1.549287 0.113247 -1.056950
v 1.485818 0.087108 -1.120057
v 1.549287 0.087108 -1.120057
vn -0.0000 -0.3827 -0.9239
vn -0.0000 -0.9239 -0.3827
vn -0.0000 -0.9239 0.3827
vn -0.0000 -0.3827 0.9239
vn -0.0000 0.3827 0.9239
vn -0.0000 0.9239 0.3827
vn 1.0000 -0.0000 -0.0000
vn -0.0000 0.9239 -0.3827
vn -0.0000 0.3827 -0.9239
vn -1.0000 -0.0000 -0.0000
vt 1.000000 0.500000
vt 0.000000 0.500000
vt 0.750000 0.490000
vt 1.000000 1.000000
vt 0.250000 0.490000
vt 0.000000 1.000000
vt 0.875000 0.500000
vt 0.919706 0.419706
vt 0.875000 1.000000
vt 0.419706 0.419706
vt 0.750000 0.500000
vt 0.990000 0.250000
vt 0.750000 1.000000
vt 0.490000 0.250000
vt 0.625000 0.500000
vt 0.919706 0.080294
vt 0.625000 1.000000
vt 0.419706 0.080294
vt 0.500000 0.500000
vt 0.750000 0.010000
vt 0.500000 1.000000
vt 0.250000 0.010000
vt 0.375000 0.500000
vt 0.580294 0.080294
vt 0.375000 1.000000
vt 0.080294 0.080294
vt 0.250000 0.500000
vt 0.510000 0.250000
vt 0.010000 0.250000
vt 0.250000 1.000000
vt 0.125000 0.500000
vt 0.580294 0.419706
vt 0.080294 0.419706
vt 0.125000 1.000000
s 0
usemtl Plastic
f 49/101/33 50/104/33 52/109/33 51/107/33
f 51/107/34 52/109/34 54/113/34 53/111/34
f 53/111/35 54/113/35 56/117/35 55/115/35
f 55/115/36 56/117/36 58/121/36 57/119/36
f 57/119/37 58/121/37 60/125/37 59/123/37
f 59/123/38 60/125/38 62/130/38 61/127/38
f 52/110/39 50/105/39 64/133/39 62/129/39 60/126/39 58/122/39 56/118/39 54/114/39
f 61/127/40 62/130/40 64/134/40 63/131/40
f 63/131/41 64/134/41 50/106/41 49/102/41
f 49/103/42 51/108/42 53/112/42 55/116/42 57/120/42 59/124/42 61/128/42 63/132/42
o Cylinder.003
v -1.589498 0.024000 -1.146197
v -1.526029 0.024000 -1.146197
v -1.589498 -0.039107 -1.120057
v -1.526029 -0.039107 -1.120057
v -1.589498 -0.065247 -1.056950
v -1.526029 -0.065247 -1.056950
v -1.589498 -0.039107 -0.993843
v -1.526029 -0.039107 -0.993843
v -1.589498 0.024000 -0.967703
v -1.526029 0.024000 -0.967703
v -1.589498 0.087108 -0.993843
v -1.526029 0.087108 -0.993843
v -1.589498 0.113247 -1.056950
v -1.526029 0.113247 -1.056950
v -1.589498 0.087108 -1.120057
v -1.526029 0.087108 -1.120057
vn -0.0000 -0.3827 -0.9239
vn -0.0000 -0.9239 -0.3827
vn -0.0000 -0.9239 0.3827
vn -0.0000 -0.3827 0.9239
vn -0.0000 0.3827 0.9239
vn -0.0000 0.9239 0.3827
vn 1.0000 -0.0000 -0.0000
vn -0.0000 0.9239 -0.3827
vn -0.0000 0.3827 -0.9239
vn -1.0000 -0.0000 -0.0000
vt 1.000000 0.500000
vt 0.000000 0.500000
vt 0.750000 0.490000
vt 1.000000 1.000000
vt 0.250000 0.490000
vt 0.000000 1.000000
vt 0.875000 0.500000
vt 0.919706 0.419706
vt 0.875000 1.000000
vt 0.419706 0.419706
vt 0.750000 0.500000
vt 0.990000 0.250000
vt 0.750000 1.000000
vt 0.490000 0.250000
vt 0.625000 0.500000
vt 0.919706 0.080294
vt 0.625000 1.000000
vt 0.419706 0.080294
vt 0.500000 0.500000
vt 0.750000 0.010000
vt 0.500000 1.000000
vt 0.250000 0.010000
vt 0.375000 0.500000
vt 0.580294 0.080294
vt 0.375000 1.000000
vt 0.080294 0.080294
vt 0.250000 0.500000
vt 0.510000 0.250000
vt 0.010000 0.250000
vt 0.250000 1.000000
vt 0.125000 0.500000
vt 0.580294 0.419706
vt 0.080294 0.419706
vt 0.125000 1.000000
s 0
usemtl Plastic
f 65/135/43 66/138/43 68/143/43 67/141/43
f 67/141/44 68/143/44 70/147/44 69/145/44
f 69/145/45 70/147/45 72/151/45 71/149/45
f 71/149/46 72/151/46 74/155/46 73/153/46
f 73/153/47 74/155/47 76/159/47 75/157/47
f 75/157/48 76/159/48 78/164/48 77/161/48
f 68/144/49 66/139/49 80/167/49 78/163/49 76/160/49 74/156/49 72/152/49 70/148/49
f 77/161/50 78/164/50 80/168/50 79/165/50
f 79/165/51 80/168/51 66/140/51 65/136/51
f 65/137/52 67/142/52 69/146/52 71/150/52 73/154/52 75/158/52 77/162/52 79/166/52
o Cylinder.004
v 1.399109 0.000292 0.958462
v 1.440700 0.000292 0.958462
v 1.399109 -0.031160 0.971489
v 1.440700 -0.031160 0.971489
v 1.399109 -0.044188 1.002941
v 1.440700 -0.044188 1.002941
v 1.399109 -0.031160 1.034392
v 1.440700 -0.031160 1.034392
v 1.399109 0.000292 1.047420
v 1.440700 0.000292 1.047420
v 1.399109 0.031743 1.034392
v 1.440700 0.031743 1.034392
v 1.399109 0.044771 1.002941
v 1.440700 0.044771 1.002941
v 1.399109 0.031743 0.971489
v 1.440700 0.031743 0.971489
vn -0.0000 -0.3827 -0.9239
vn -0.0000 -0.9239 -0.3827
vn -0.0000 -0.9239 0.3827
vn -0.0000 -0.3827 0.9239
vn -0.0000 0.3827 0.9239
vn -0.0000 0.9239 0.3827
vn 1.0000 -0.0000 -0.0000
vn -0.0000 0.9239 -0.3827
vn -0.0000 0.3827 -0.9239
vn -1.0000 -0.0000 -0.0000
vt 1.000000 0.500000
vt 0.000000 0.500000
vt 0.750000 0.490000
vt 1.000000 1.000000
vt 0.250000 0.490000
vt 0.000000 1.000000
vt 0.875000 0.500000
vt 0.919706 0.419706
vt 0.875000 1.000000
vt 0.419706 0.419706
vt 0.750000 0.500000
vt 0.990000 0.250000
vt 0.750000 1.000000
vt 0.490000 0.250000
vt 0.625000 0.500000
vt 0.919706 0.080294
vt 0.625000 1.000000
vt 0.419706 0.080294
vt 0.500000 0.500000
vt 0.750000 0.010000
vt 0.500000 1.000000
vt 0.250000 0.010000
vt 0.375000 0.500000
vt 0.580294 0.080294
vt 0.375000 1.000000
vt 0.080294 0.080294
vt 0.250000 0.500000
vt 0.510000 0.250000
vt 0.010000 0.250000
vt 0.250000 1.000000
vt 0.125000 0.500000
vt 0.580294 0.419706
vt 0.080294 0.419706
vt 0.125000 1.000000
s 0
usemtl Plastic
f 81/169/53 82/172/53 84/177/53 83/175/53
f 83/175/54 84/177/54 86/181/54 85/179/54
f 85/179/55 86/181/55 88/185/55 87/183/55
f 87/183/56 88/185/56 90/189/56 89/187/56
f 89/187/57 90/189/57 92/193/57 91/191/57
f 91/191/58 92/193/58 94/198/58 93/195/58
f 84/178/59 82/173/59 96/201/59 94/197/59 92/194/59 90/190/59 88/186/59 86/182/59
f 93/195/60 94/198/60 96/202/60 95/199/60
f 95/199/61 96/202/61 82/174/61 81/170/61
f 81/171/62 83/176/62 85/180/62 87/184/62 89/188/62 91/192/62 93/196/62 95/200/62
o Cylinder.005
v -1.461668 0.000292 0.958462
v -1.420076 0.000292 0.958462
v -1.461668 -0.031160 0.971489
v -1.420076 -0.031160 0.971489
v -1.461668 -0.044188 1.002941
v -1.420076 -0.044188 1.002941
v -1.461668 -0.031160 1.034392
v -1.420076 -0.031160 1.034392
v -1.461668 0.000292 1.047420
v -1.420076 0.000292 1.047420
v -1.461668 0.031743 1.034392
v -1.420076 0.031743 1.034392
v -1.461668 0.044771 1.002941
v -1.420076 0.044771 1.002941
v -1.461668 0.031743 0.971489
v -1.420076 0.031743 0.971489
vn -0.0000 -0.3827 -0.9239
vn -0.0000 -0.9239 -0.3827
vn -0.0000 -0.9239 0.3827
vn -0.0000 -0.3827 0.9239
vn -0.0000 0.3827 0.9239
vn -0.0000 0.9239 0.3827
vn 1.0000 -0.0000 -0.0000
vn -0.0000 0.9239 -0.3827
vn -0.0000 0.3827 -0.9239
vn -1.0000 -0.0000 -0.0000
vt 1.000000 0.500000
vt 0.000000 0.500000
vt 0.750000 0.490000
vt 1.000000 1.000000
vt 0.250000 0.490000
vt 0.000000 1.000000
vt 0.875000 0.500000
vt 0.919706 0.419706
vt 0.875000 1.000000
vt 0.419706 0.419706
vt 0.750000 0.500000
vt 0.990000 0.250000
vt 0.750000 1.000000
vt 0.490000 0.250000
vt 0.625000 0.500000
vt 0.919706 0.080294
vt 0.625000 1.000000
vt 0.419706 0.080294
vt 0.500000 0.500000
vt 0.750000 0.010000
vt 0.500000 1.000000
vt 0.250000 0.010000
vt 0.375000 0.500000
vt 0.580294 0.080294
vt 0.375000 1.000000
vt 0.080294 0.080294
vt 0.250000 0.500000
vt 0.510000 0.250000
vt 0.010000 0.250000
vt 0.250000 1.000000
vt 0.125000 0.500000
vt 0.580294 0.419706
vt 0.080294 0.419706
vt 0.125000 1.000000
s 0
usemtl Plastic
f 97/203/63 98/206/63 100/211/63 99/209/63
f 99/209/64 100/211/64 102/215/64 101/213/64
f 101/213/65 102/215/65 104/219/65 103/217/65
f 103/217/66 104/219/66 106/223/66 105/221/66
f 105/221/67 106/223/67 108/227/67 107/225/67
f 107/225/68 108/227/68 110/232/68 109/229/68
f 100/212/69 98/207/69 112/235/69 110/231/69 108/228/69 106/224/69 104/220/69 102/216/69
f 109/229/70 110/232/70 112/236/70 111/233/70
f 111/233/71 112/236/71 98/208/71 97/204/71
f 97/205/72 99/210/72 101/214/72 103/218/72 105/222/72 107/226/72 109/230/72 111/234/72
