# Blender 4.4.0
# www.blender.org
mtllib arrow.mtl
o Cube
v 1.000000 0.100000 0.000000
v 1.000000 -0.100000 0.000000
v 0.000000 -0.050000 -0.250000
v 0.000000 0.050000 0.250000
v 0.000000 -0.050000 0.250000
v 0.000000 0.050000 -0.250000
v 0.000000 0.100000 -0.500000
v 0.000000 -0.100000 -0.500000
v 0.000000 -0.100000 0.500000
v 0.000000 0.100000 0.500000
v -1.000000 -0.050000 -0.250000
v -1.000000 0.050000 0.250000
v -1.000000 -0.050000 0.250000
v -1.000000 0.050000 -0.250000
vn -0.0000 -0.0000 1.0000
vn -0.0000 -1.0000 -0.0000
vn 0.4472 -0.0000 -0.8944
vn 0.4472 -0.0000 0.8944
vn -0.0000 1.0000 -0.0000
vn -1.0000 -0.0000 -0.0000
vn -0.0000 -0.0000 -1.0000
vt 0.250000 0.750000
vt 0.625000 0.875000
vt 0.250000 0.500000
vt 0.375000 0.750000
vt 0.375000 0.375000
vt 0.625000 0.375000
vt 0.625000 0.500000
vt 0.375000 0.500000
vt 0.625000 0.750000
vt 0.375000 0.875000
vt 0.750000 0.500000
vt 0.750000 0.750000
s 0
usemtl Material
f 5/1/1 4/2/1 12/2/1 13/1/1
f 8/3/2 2/4/2 9/1/2
f 8/5/3 7/6/3 1/7/3 2/8/3
f 2/4/4 1/9/4 10/2/4 9/10/4
f 1/7/5 7/11/5 10/12/5
f 3/3/6 6/11/6 7/11/6 8/3/6
f 5/1/6 3/3/6 8/3/6 9/1/6
f 4/2/6 5/1/6 9/1/6 10/2/6
f 6/11/6 4/2/6 10/2/6 7/11/6
f 11/3/6 13/1/6 12/2/6 14/11/6
f 6/11/7 3/3/7 11/3/7 14/11/7
f 4/2/5 6/11/5 14/11/5 12/2/5
f 3/3/2 5/1/2 13/1/2 11/3/2
